# xmcd
#
# Track frame offsets:
#	150
#	24835
#	55015
#	76470
#	96937
#	113982
#	135637
#	162340
#	178420
#	201875
#
# Disc length: 3019 seconds
#
# Revision: 1
# Processed by: cddbd v1.5PL3 Copyright (c) Steve Scherf et al.
# Submitted via: CDex 1.50Beta5
#
DISCID=830bc90a
DTITLE=ジョアン・ジルベルト - 三月の水
DYEAR=2002
DGENRE=ボサノバ
TTITLE0=三月の水
TTITLE1=ウンディユ
TTITLE2=バイア(靴屋の坂道で)
TTITLE3=夜明けのベランダ
TTITLE4=偽のバイーア娘
TTITLE5=喜びのサンバ
TTITLE6=バイーア生まれ
TTITLE7=ベベル
TTITLE8=許してあげよう
TTITLE9=イザウラ
EXTD=
EXTT0=
EXTT1=
EXTT2=
EXTT3=
EXTT4=
EXTT5=
EXTT6=
EXTT7=
EXTT8=
EXTT9=
PLAYORDER=
